<?xml version="1.0" standalone="no"?>
<!DOCTYPE svg PUBLIC "-//W3C//DTD SVG 20010904//EN"
 "http://www.w3.org/TR/2001/REC-SVG-20010904/DTD/svg10.dtd">
<svg version="1.0" xmlns="http://www.w3.org/2000/svg"
 width="1704.000000pt" height="1704.000000pt" viewBox="0 0 1704.000000 1704.000000"
 preserveAspectRatio="xMidYMid meet">
<metadata>
Created by potrace 1.14, written by Peter Selinger 2001-2017
</metadata>
<g transform="translate(0.000000,1704.000000) scale(0.100000,-0.100000)"
fill="#000000" stroke="none">
<path d="M4202 12769 c-472 -44 -809 -297 -918 -689 -28 -98 -25 -357 3 -460
l21 -75 -205 -365 c-114 -201 -214 -375 -222 -388 -10 -14 -58 -41 -117 -66
-643 -273 -1403 -898 -1899 -1561 -134 -179 -214 -308 -311 -500 -132 -263
-187 -468 -187 -700 1 -272 89 -485 272 -657 129 -122 298 -202 481 -231 l84
-13 718 -944 c395 -520 744 -971 776 -1003 31 -32 96 -85 143 -117 154 -103
314 -150 514 -150 132 0 235 18 345 61 136 52 176 81 453 322 l56 48 643 -407
c666 -422 729 -459 844 -498 38 -13 97 -36 132 -51 174 -73 413 -73 600 2 135
54 278 169 357 286 19 28 267 489 552 1024 l518 972 291 1 291 0 23 -25 c70
-75 223 -135 341 -135 103 0 164 19 360 114 97 47 203 96 236 110 l61 25 54
-29 c115 -63 59 -60 1336 -60 l1164 0 67 -24 c139 -50 287 -41 410 24 l58 31
61 -16 c52 -13 144 -15 634 -15 453 0 596 -3 683 -15 192 -26 628 -40 826 -27
598 40 1020 216 1359 568 251 260 395 563 456 959 23 149 23 477 0 635 -34
237 -94 432 -193 620 -74 141 -148 243 -268 368 -301 315 -674 486 -1225 564
-142 20 -696 16 -920 -6 -332 -32 -421 -53 -510 -116 l-28 -20 -52 35 c-29 19
-82 44 -119 55 -65 20 -88 21 -697 18 l-631 -3 -85 -42 -85 -43 -54 29 c-119
64 -64 62 -1180 59 l-1014 -3 -77 -37 c-42 -20 -97 -55 -122 -78 l-45 -42
-103 40 c-313 122 -544 162 -985 169 l-303 5 0 72 c0 39 -7 100 -15 136 -8 36
-20 94 -25 130 -48 306 -197 568 -485 855 -758 755 -2244 1358 -3143 1274z
m334 -199 c765 -61 1754 -470 2419 -1001 372 -297 598 -598 656 -876 11 -54
29 -139 40 -190 23 -110 24 -207 4 -302 -15 -71 -12 -100 9 -102 6 -1 155 -1
331 0 566 4 881 -52 1197 -210 54 -27 106 -49 117 -49 18 0 71 52 71 69 0 15
86 94 125 115 l40 21 979 3 c879 2 985 1 1028 -14 34 -11 72 -37 124 -85 85
-79 81 -79 159 1 99 102 44 95 731 98 l601 3 64 -33 c45 -24 77 -50 111 -93
27 -33 55 -63 64 -68 13 -7 33 9 93 70 89 93 115 105 286 127 237 31 400 41
690 40 330 0 437 -10 662 -64 574 -138 990 -501 1157 -1011 98 -299 119 -679
55 -994 -138 -679 -670 -1144 -1419 -1239 -257 -33 -696 -28 -992 10 -94 12
-243 16 -701 17 l-582 2 -59 33 c-33 17 -65 32 -72 32 -7 0 -34 -19 -61 -42
-102 -88 -214 -107 -328 -55 l-59 28 -1181 -1 c-1314 0 -1233 -4 -1330 69 -30
23 -61 44 -69 47 -17 7 -154 -51 -411 -174 l-200 -96 -80 0 c-102 -1 -161 27
-235 113 -29 33 -60 63 -69 66 -9 2 -38 -2 -65 -10 -39 -12 -115 -15 -366 -15
-237 0 -320 -3 -333 -12 -10 -7 -262 -472 -561 -1033 -382 -716 -559 -1038
-594 -1081 -97 -119 -261 -202 -419 -212 -127 -8 -215 16 -473 126 -36 16
-383 229 -771 475 -388 246 -716 447 -728 447 -13 0 -88 -59 -198 -156 -208
-183 -286 -237 -403 -278 -111 -39 -277 -48 -395 -21 -110 24 -238 92 -323
170 -51 48 -268 326 -797 1023 -400 526 -738 967 -751 979 -17 15 -42 23 -91
28 -110 11 -192 34 -293 82 -79 38 -108 59 -175 127 -139 140 -197 285 -197
496 0 129 17 226 64 365 218 642 995 1497 1815 1998 137 83 362 197 480 242
40 16 79 35 87 44 7 9 127 216 266 461 l252 444 -21 61 c-73 209 -67 400 20
572 119 237 364 379 711 412 122 12 152 12 294 1z"/>
<path d="M4174 12266 c-208 -40 -343 -130 -395 -264 -17 -44 -22 -78 -22 -147
0 -100 21 -175 76 -278 23 -44 28 -63 21 -75 -6 -10 -153 -269 -328 -578
l-318 -561 -72 -23 c-645 -207 -1513 -920 -1985 -1630 -205 -309 -301 -565
-289 -771 9 -155 77 -267 199 -328 82 -41 154 -54 278 -49 l106 3 770 -1014
c424 -557 793 -1039 822 -1070 166 -183 435 -188 635 -12 29 26 73 59 98 74
25 14 121 94 215 177 93 82 173 150 177 150 4 0 407 -253 895 -562 543 -343
909 -570 943 -581 78 -27 194 -20 272 15 118 54 100 25 733 1213 l581 1090
393 5 c374 5 393 6 407 24 11 16 14 61 14 205 l0 186 68 -120 c63 -112 239
-365 297 -427 14 -16 34 -28 44 -28 10 0 96 38 192 84 169 81 351 161 514 226
83 33 105 46 105 62 0 5 -41 49 -92 96 -119 113 -251 260 -361 402 l-88 113
33 20 c120 72 239 179 313 282 172 240 226 578 144 900 -106 415 -440 661
-1019 752 -232 36 -1294 15 -1345 -27 -22 -18 -21 -59 20 -749 6 -90 5 -103
-8 -93 -8 7 -17 39 -21 73 -10 98 -34 177 -86 284 -50 105 -128 202 -221 275
l-46 36 70 182 c66 172 71 182 96 182 53 1 168 31 228 60 81 40 157 122 178
192 31 106 14 206 -63 366 -26 54 -55 120 -66 146 -46 116 -196 309 -350 450
-398 364 -1007 703 -1626 904 -345 113 -604 162 -880 168 -129 2 -206 -1 -256
-10z m521 -366 c229 -22 507 -86 769 -177 144 -50 205 -74 436 -173 94 -40
385 -192 504 -262 487 -291 869 -680 893 -910 8 -75 -9 -119 -62 -166 -49 -43
-137 -77 -240 -91 -109 -16 -117 -25 -196 -236 -28 -77 -60 -149 -70 -160 -17
-18 -22 -18 -51 -6 -176 73 -377 119 -613 142 -156 15 -754 5 -920 -15 -229
-27 -259 -36 -282 -79 -9 -18 -39 -57 -68 -88 -78 -85 -98 -150 -94 -303 3
-103 2 -121 -11 -124 -18 -3 -586 548 -595 578 -4 11 1 54 11 96 24 111 17
233 -20 307 -49 101 -100 134 -285 185 -49 14 -47 31 19 153 34 63 86 155 115
204 28 50 109 191 179 315 148 261 147 259 77 376 -42 69 -81 176 -81 220 0
42 48 122 88 148 100 64 274 87 497 66z m-884 -1620 c154 -29 210 -154 159
-355 -25 -96 -25 -122 -2 -160 10 -17 175 -183 365 -369 191 -187 350 -348
353 -359 3 -11 -4 -33 -19 -55 -14 -20 -349 -476 -746 -1012 -557 -754 -725
-988 -743 -1035 -33 -85 -33 -225 0 -311 33 -85 97 -163 184 -220 40 -26 94
-66 119 -88 40 -35 246 -171 466 -307 93 -57 90 -64 -77 -210 -161 -142 -221
-179 -289 -179 -60 0 -137 36 -181 86 -19 22 -217 279 -440 572 -223 294 -486
640 -585 771 -99 130 -271 357 -383 504 -124 163 -214 273 -232 282 -24 13
-55 14 -168 9 -135 -7 -140 -6 -195 19 -46 21 -61 35 -87 79 -29 50 -31 58
-26 128 19 288 299 738 736 1184 441 450 915 786 1331 944 209 80 344 104 460
82z m2379 -564 c378 -61 622 -186 762 -390 83 -121 118 -254 118 -450 0 -253
-70 -437 -230 -597 -61 -62 -92 -84 -165 -118 -106 -51 -130 -68 -114 -87 6
-7 48 -31 94 -53 95 -47 139 -91 188 -191 30 -61 32 -71 32 -175 0 -105 -2
-114 -33 -177 -77 -156 -282 -273 -567 -323 -159 -27 -368 -36 -601 -25 -245
12 -498 36 -525 51 -25 13 -27 26 -34 219 -17 510 -50 1203 -79 1695 -21 348
-31 566 -25 577 13 25 60 36 199 48 69 5 141 12 160 14 19 2 188 3 375 1 262
-2 364 -6 445 -19z m2340 -20 c402 -65 660 -198 805 -416 133 -200 178 -534
104 -779 -34 -109 -115 -246 -199 -335 -85 -90 -160 -143 -264 -191 -40 -18
-76 -40 -79 -49 -11 -28 180 -282 367 -490 58 -64 106 -121 106 -125 0 -18
-44 -44 -164 -96 -71 -30 -156 -68 -190 -84 -114 -54 -155 -71 -169 -71 -42 0
-206 239 -337 493 -56 108 -111 204 -123 212 -29 20 -70 19 -89 -2 -13 -15
-17 -66 -23 -283 -6 -218 -10 -268 -23 -282 -14 -17 -46 -18 -399 -18 -359 0
-384 1 -401 18 -22 22 -22 21 -52 782 -27 688 -49 1171 -65 1445 -13 216 -12
231 4 248 14 14 44 20 142 27 212 17 245 17 599 15 265 -2 369 -7 450 -19z
m-1291 -1108 c5 -13 19 -284 31 -603 31 -837 35 -893 56 -916 9 -10 27 -19 39
-19 13 0 28 -7 35 -15 15 -19 3 -50 -79 -200 -30 -55 -75 -140 -101 -190 -26
-49 -80 -151 -120 -225 -40 -74 -92 -171 -115 -215 -40 -78 -56 -106 -176
-327 -33 -59 -59 -109 -59 -111 0 -3 -82 -158 -182 -344 -100 -186 -192 -360
-206 -388 -47 -95 -80 -134 -142 -165 -76 -39 -132 -40 -203 -4 -29 15 -272
166 -542 337 -269 170 -798 505 -1175 743 -377 238 -704 449 -727 468 -54 47
-83 108 -83 175 0 85 -36 31 545 816 158 215 329 446 379 513 50 68 160 217
244 330 85 114 172 233 194 265 44 61 74 74 83 35 6 -26 41 -856 52 -1209 8
-305 -12 -280 253 -308 820 -88 1338 -16 1596 221 122 112 175 230 176 393 2
149 -32 248 -126 369 -25 33 -46 63 -46 68 0 4 34 40 76 80 90 86 171 204 213
310 17 42 31 80 31 85 0 5 7 19 16 31 20 29 52 28 63 0z"/>
<path d="M6045 8860 c-17 -19 -20 -48 -32 -293 -9 -184 -10 -279 -4 -294 15
-32 53 -38 170 -25 162 18 247 66 297 168 37 75 39 193 4 272 -49 113 -166
182 -325 190 -83 4 -92 2 -110 -18z m246 -154 c49 -33 79 -91 79 -154 0 -80
-52 -140 -142 -164 -43 -11 -49 -10 -69 8 -21 18 -21 24 -15 163 4 79 12 153
17 164 15 26 76 18 130 -17z"/>
<path d="M6005 7990 c-19 -20 -20 -39 -23 -257 -4 -293 -11 -278 128 -269 116
7 183 26 238 66 57 41 91 96 102 166 21 125 -27 224 -135 279 -53 27 -69 30
-174 33 -109 3 -118 2 -136 -18z m255 -135 c36 -19 60 -62 60 -110 0 -57 -25
-94 -83 -121 -61 -28 -84 -30 -109 -7 -15 14 -18 32 -18 121 0 129 10 147 78
138 23 -3 56 -13 72 -21z"/>
<path d="M8324 8709 c-17 -19 -19 -44 -23 -335 -4 -379 -10 -360 109 -349 193
16 351 116 396 248 11 31 18 82 18 127 1 66 -4 85 -32 143 -61 124 -181 187
-357 187 -81 0 -94 -3 -111 -21z m263 -142 c63 -33 83 -56 99 -118 18 -70 3
-139 -42 -189 -34 -37 -119 -82 -181 -95 l-33 -7 0 215 c0 117 3 217 8 221 13
14 99 -2 149 -27z"/>
<path d="M14080 9839 c-198 -14 -335 -31 -369 -45 l-34 -14 6 -118 c4 -64 18
-290 31 -502 35 -534 44 -724 71 -1440 l23 -624 25 -22 c46 -39 311 -65 682
-67 348 -1 526 22 748 100 257 89 478 245 628 443 66 86 163 283 194 395 72
254 82 571 25 840 -126 605 -585 977 -1302 1054 -110 12 -568 12 -728 0z m820
-143 c693 -123 1056 -500 1111 -1154 29 -352 -55 -683 -233 -917 -194 -255
-489 -412 -885 -472 -203 -30 -830 -15 -920 22 -20 8 -34 23 -37 37 -3 13 -14
289 -26 613 -21 607 -36 912 -70 1427 -25 376 -25 414 -2 427 9 5 76 14 147
20 72 6 148 13 170 15 22 2 177 2 345 1 232 -2 328 -7 400 -19z"/>
<path d="M14825 8700 c-17 -18 -19 -63 -28 -580 -10 -561 -10 -561 10 -582 20
-20 25 -20 102 -9 172 25 302 94 394 206 98 119 139 251 140 450 2 195 -36
299 -145 400 -99 91 -217 135 -369 135 -73 0 -89 -3 -104 -20z m268 -140 c74
-28 157 -103 185 -168 34 -79 46 -182 33 -282 -30 -237 -137 -374 -339 -434
l-53 -15 6 422 c3 232 8 442 11 466 l6 44 46 -6 c26 -3 73 -15 105 -27z"/>
<path d="M9595 9790 c-15 -17 -17 -31 -11 -102 27 -357 54 -908 92 -1918 22
-582 28 -688 41 -702 15 -17 66 -18 805 -18 746 0 789 1 806 18 10 10 26 54
35 98 9 43 40 174 68 291 28 117 49 219 46 228 -8 20 -35 19 -147 -6 -95 -20
-304 -38 -454 -39 -76 0 -78 1 -72 23 3 12 6 69 6 126 l0 104 173 -6 c94 -3
203 -11 241 -17 58 -10 71 -10 83 3 8 8 23 65 34 128 11 62 37 182 59 267 21
84 37 159 34 167 -3 8 -15 17 -27 21 -11 4 -146 3 -299 -1 l-277 -7 5 89 c3
48 8 94 10 102 6 17 161 10 387 -19 155 -20 181 -20 190 5 3 7 22 268 43 580
35 543 36 566 19 585 -18 20 -36 20 -945 20 -911 0 -927 0 -945 -20z m1750
-130 c17 -19 17 -35 -9 -442 -15 -233 -29 -431 -32 -440 -8 -26 -42 -31 -130
-18 -43 6 -155 14 -249 17 -158 5 -171 4 -187 -13 -12 -15 -19 -57 -28 -189
-6 -93 -13 -180 -16 -192 -3 -15 4 -31 17 -44 22 -22 25 -22 275 -16 283 6
281 7 271 -61 -15 -99 -48 -228 -61 -238 -11 -7 -86 -9 -243 -6 -221 4 -229 4
-247 -16 -16 -19 -20 -49 -28 -243 -9 -210 -9 -223 9 -240 17 -18 30 -18 228
-9 116 5 244 12 286 16 108 8 109 6 75 -149 -33 -145 -43 -175 -67 -187 -11
-6 -276 -10 -682 -10 -649 0 -664 0 -682 20 -16 18 -20 76 -41 627 -31 829
-42 1073 -64 1463 -11 184 -20 338 -20 343 0 4 9 16 20 27 20 20 33 20 803 20
770 0 784 0 802 -20z"/>
<path d="M12013 9788 c-15 -18 -28 -72 -57 -248 -91 -546 -237 -1218 -462
-2124 -41 -165 -74 -309 -74 -321 0 -44 10 -45 305 -45 328 0 309 -6 340 115
10 39 21 75 24 82 3 6 33 -47 65 -118 32 -71 67 -134 77 -139 14 -8 34 3 101
58 104 85 168 130 239 169 l55 31 28 -84 c17 -53 35 -89 49 -99 18 -13 90 -15
519 -15 438 0 498 2 512 16 9 8 16 21 16 28 0 6 -49 214 -109 462 -196 806
-358 1516 -455 1994 -47 231 -44 218 -66 240 -19 19 -36 20 -553 20 l-534 0
-20 -22z m1002 -128 c10 -12 27 -65 40 -132 33 -163 113 -533 130 -603 8 -33
28 -123 45 -200 16 -77 52 -237 80 -355 28 -118 54 -233 59 -255 11 -51 108
-453 167 -691 24 -99 44 -190 44 -202 0 -12 -9 -26 -19 -32 -13 -6 -152 -10
-384 -10 l-364 0 -20 23 c-11 12 -31 54 -43 92 -29 91 -45 115 -75 115 -30 0
-172 -73 -280 -144 -44 -29 -86 -56 -93 -60 -13 -8 -52 19 -52 36 0 5 -25 61
-55 123 -30 63 -55 124 -55 135 0 32 39 47 140 54 136 10 337 54 369 82 l26
22 -59 174 c-60 177 -216 552 -241 577 -28 29 -47 -5 -137 -249 -36 -96 -82
-227 -102 -290 -21 -63 -51 -157 -67 -208 -17 -51 -52 -172 -79 -270 -36 -132
-54 -181 -70 -194 -19 -15 -43 -18 -164 -18 -150 0 -166 4 -166 46 0 13 31
150 69 306 71 289 161 665 212 888 34 146 147 700 160 780 43 272 78 443 94
460 17 19 33 20 445 20 412 0 428 -1 445 -20z m-550 -1798 c25 -70 45 -130 45
-134 0 -7 -141 -33 -232 -43 -46 -5 -58 -4 -58 7 0 14 77 248 121 365 l23 63
28 -66 c15 -35 48 -122 73 -192z"/>
</g>
</svg>
